<svg xmlns="http://www.w3.org/2000/svg" viewBox="0 0 178.5 54.15"><title>Fiverr logo - Brandlogos.net</title><path d="M586.41,511.2h-6.22c-4,0-6.22,3-6.22,8.22v18.65h-12V511.2h-5c-4,0-6.22,3-6.22,8.22v18.65h-12v-36.9h12v5.62c2-4.41,4.61-5.62,8.62-5.62H574v5.62c2-4.41,4.61-5.62,8.62-5.62h4Zm-50.54,11.23H511c.6,4.21,3.21,6.42,7.42,6.42,3.21,0,5.42-1.4,6.22-3.61l10.63,3c-2.61,6.42-9,10.23-16.85,10.23-13,0-19.05-10.23-19.05-19.05,0-8.62,5.21-18.85,18.25-18.85,13.84,0,18.45,10.43,18.45,18.25A16.36,16.36,0,0,1,535.87,522.43Zm-11.43-7a6.32,6.32,0,0,0-6.62-6c-3.81,0-6,1.6-6.82,6Zm-45.93,22.66h10.43l13.24-36.7h-12l-6.42,21.46-6.42-21.66h-12Zm-48.94,0H441.4V511.2h11.43v26.88h11.83v-36.9H441.4V499c0-2.41,1.81-4,4.41-4h7v-10H444c-8.62,0-14.44,5.42-14.44,13.24v3h-6.82v10h6.82Z" transform="translate(-422.75 -484.92)" style="fill:#404145"/><path d="M593.83,539.08a7.42,7.42,0,1,0-7.42-7.42A7.54,7.54,0,0,0,593.83,539.08Z" transform="translate(-422.75 -484.92)" style="fill:#1dbf73"/></svg>