<svg xmlns="http://www.w3.org/2000/svg" version="1.1" xmlns:xlink="http://www.w3.org/1999/xlink" xmlns:svgjs="http://svgjs.dev/svgjs" viewBox="0 0 800 800" opacity="1" width="800" height="800"><g stroke-width="1.5" stroke="hsla(0, 0%, 8%, 1.00)" fill="none"><rect width="88.88888888888889" height="114.28571428571429" x="0" y="0"></rect><rect width="88.88888888888889" height="114.28571428571429" x="88.88888888888889" y="0"></rect><rect width="88.88888888888889" height="114.28571428571429" x="177.77777777777777" y="0"></rect><rect width="88.88888888888889" height="114.28571428571429" x="266.66666666666663" y="0"></rect><rect width="88.88888888888889" height="114.28571428571429" x="355.55555555555554" y="0"></rect><rect width="88.88888888888889" height="114.28571428571429" x="444.44444444444446" y="0"></rect><rect width="88.88888888888889" height="114.28571428571429" x="533.3333333333334" y="0"></rect><rect width="88.88888888888889" height="114.28571428571429" x="622.2222222222223" y="0"></rect><rect width="88.88888888888889" height="114.28571428571429" x="711.1111111111112" y="0"></rect><rect width="88.88888888888889" height="114.28571428571429" x="800.0000000000001" y="0"></rect><rect width="88.88888888888889" height="114.28571428571429" x="0" y="114.28571428571429"></rect><rect width="88.88888888888889" height="114.28571428571429" x="88.88888888888889" y="114.28571428571429"></rect><rect width="88.88888888888889" height="114.28571428571429" x="177.77777777777777" y="114.28571428571429"></rect><rect width="88.88888888888889" height="114.28571428571429" x="266.66666666666663" y="114.28571428571429"></rect><rect width="88.88888888888889" height="114.28571428571429" x="355.55555555555554" y="114.28571428571429"></rect><rect width="88.88888888888889" height="114.28571428571429" x="444.44444444444446" y="114.28571428571429"></rect><rect width="88.88888888888889" height="114.28571428571429" x="533.3333333333334" y="114.28571428571429"></rect><rect width="88.88888888888889" height="114.28571428571429" x="622.2222222222223" y="114.28571428571429"></rect><rect width="88.88888888888889" height="114.28571428571429" x="711.1111111111112" y="114.28571428571429"></rect><rect width="88.88888888888889" height="114.28571428571429" x="800.0000000000001" y="114.28571428571429"></rect><rect width="88.88888888888889" height="114.28571428571429" x="0" y="228.57142857142858"></rect><rect width="88.88888888888889" height="114.28571428571429" x="88.88888888888889" y="228.57142857142858"></rect><rect width="88.88888888888889" height="114.28571428571429" x="177.77777777777777" y="228.57142857142858"></rect><rect width="88.88888888888889" height="114.28571428571429" x="266.66666666666663" y="228.57142857142858"></rect><rect width="88.88888888888889" height="114.28571428571429" x="355.55555555555554" y="228.57142857142858"></rect><rect width="88.88888888888889" height="114.28571428571429" x="444.44444444444446" y="228.57142857142858"></rect><rect width="88.88888888888889" height="114.28571428571429" x="533.3333333333334" y="228.57142857142858"></rect><rect width="88.88888888888889" height="114.28571428571429" x="622.2222222222223" y="228.57142857142858"></rect><rect width="88.88888888888889" height="114.28571428571429" x="711.1111111111112" y="228.57142857142858"></rect><rect width="88.88888888888889" height="114.28571428571429" x="800.0000000000001" y="228.57142857142858"></rect><rect width="88.88888888888889" height="114.28571428571429" x="0" y="342.8571428571429"></rect><rect width="88.88888888888889" height="114.28571428571429" x="88.88888888888889" y="342.8571428571429"></rect><rect width="88.88888888888889" height="114.28571428571429" x="177.77777777777777" y="342.8571428571429"></rect><rect width="88.88888888888889" height="114.28571428571429" x="266.66666666666663" y="342.8571428571429"></rect><rect width="88.88888888888889" height="114.28571428571429" x="355.55555555555554" y="342.8571428571429"></rect><rect width="88.88888888888889" height="114.28571428571429" x="444.44444444444446" y="342.8571428571429"></rect><rect width="88.88888888888889" height="114.28571428571429" x="533.3333333333334" y="342.8571428571429"></rect><rect width="88.88888888888889" height="114.28571428571429" x="622.2222222222223" y="342.8571428571429"></rect><rect width="88.88888888888889" height="114.28571428571429" x="711.1111111111112" y="342.8571428571429"></rect><rect width="88.88888888888889" height="114.28571428571429" x="800.0000000000001" y="342.8571428571429"></rect><rect width="88.88888888888889" height="114.28571428571429" x="0" y="457.14285714285717"></rect><rect width="88.88888888888889" height="114.28571428571429" x="88.88888888888889" y="457.14285714285717"></rect><rect width="88.88888888888889" height="114.28571428571429" x="177.77777777777777" y="457.14285714285717"></rect><rect width="88.88888888888889" height="114.28571428571429" x="266.66666666666663" y="457.14285714285717"></rect><rect width="88.88888888888889" height="114.28571428571429" x="355.55555555555554" y="457.14285714285717"></rect><rect width="88.88888888888889" height="114.28571428571429" x="444.44444444444446" y="457.14285714285717"></rect><rect width="88.88888888888889" height="114.28571428571429" x="533.3333333333334" y="457.14285714285717"></rect><rect width="88.88888888888889" height="114.28571428571429" x="622.2222222222223" y="457.14285714285717"></rect><rect width="88.88888888888889" height="114.28571428571429" x="711.1111111111112" y="457.14285714285717"></rect><rect width="88.88888888888889" height="114.28571428571429" x="800.0000000000001" y="457.14285714285717"></rect><rect width="88.88888888888889" height="114.28571428571429" x="0" y="571.4285714285714"></rect><rect width="88.88888888888889" height="114.28571428571429" x="88.88888888888889" y="571.4285714285714"></rect><rect width="88.88888888888889" height="114.28571428571429" x="177.77777777777777" y="571.4285714285714"></rect><rect width="88.88888888888889" height="114.28571428571429" x="266.66666666666663" y="571.4285714285714"></rect><rect width="88.88888888888889" height="114.28571428571429" x="355.55555555555554" y="571.4285714285714"></rect><rect width="88.88888888888889" height="114.28571428571429" x="444.44444444444446" y="571.4285714285714"></rect><rect width="88.88888888888889" height="114.28571428571429" x="533.3333333333334" y="571.4285714285714"></rect><rect width="88.88888888888889" height="114.28571428571429" x="622.2222222222223" y="571.4285714285714"></rect><rect width="88.88888888888889" height="114.28571428571429" x="711.1111111111112" y="571.4285714285714"></rect><rect width="88.88888888888889" height="114.28571428571429" x="800.0000000000001" y="571.4285714285714"></rect><rect width="88.88888888888889" height="114.28571428571429" x="0" y="685.7142857142858"></rect><rect width="88.88888888888889" height="114.28571428571429" x="88.88888888888889" y="685.7142857142858"></rect><rect width="88.88888888888889" height="114.28571428571429" x="177.77777777777777" y="685.7142857142858"></rect><rect width="88.88888888888889" height="114.28571428571429" x="266.66666666666663" y="685.7142857142858"></rect><rect width="88.88888888888889" height="114.28571428571429" x="355.55555555555554" y="685.7142857142858"></rect><rect width="88.88888888888889" height="114.28571428571429" x="444.44444444444446" y="685.7142857142858"></rect><rect width="88.88888888888889" height="114.28571428571429" x="533.3333333333334" y="685.7142857142858"></rect><rect width="88.88888888888889" height="114.28571428571429" x="622.2222222222223" y="685.7142857142858"></rect><rect width="88.88888888888889" height="114.28571428571429" x="711.1111111111112" y="685.7142857142858"></rect><rect width="88.88888888888889" height="114.28571428571429" x="800.0000000000001" y="685.7142857142858"></rect><rect width="88.88888888888889" height="114.28571428571429" x="0" y="800.0000000000001"></rect><rect width="88.88888888888889" height="114.28571428571429" x="88.88888888888889" y="800.0000000000001"></rect><rect width="88.88888888888889" height="114.28571428571429" x="177.77777777777777" y="800.0000000000001"></rect><rect width="88.88888888888889" height="114.28571428571429" x="266.66666666666663" y="800.0000000000001"></rect><rect width="88.88888888888889" height="114.28571428571429" x="355.55555555555554" y="800.0000000000001"></rect><rect width="88.88888888888889" height="114.28571428571429" x="444.44444444444446" y="800.0000000000001"></rect><rect width="88.88888888888889" height="114.28571428571429" x="533.3333333333334" y="800.0000000000001"></rect><rect width="88.88888888888889" height="114.28571428571429" x="622.2222222222223" y="800.0000000000001"></rect><rect width="88.88888888888889" height="114.28571428571429" x="711.1111111111112" y="800.0000000000001"></rect><rect width="88.88888888888889" height="114.28571428571429" x="800.0000000000001" y="800.0000000000001"></rect></g></svg>