<svg width="794" height="264" viewBox="0 0 794 264" fill="none" xmlns="http://www.w3.org/2000/svg">
<path d="M303.405 197.212H494.948M1.29023 -127.967L1.29022 264M26.8293 -127.967L26.8292 264M52.3683 -127.967L52.3683 264M77.9073 -127.967L77.9073 264M103.446 -127.967L103.446 264M128.985 -127.967L128.985 264M154.524 -127.967L154.524 264M180.063 -127.967L180.063 264M205.602 -127.967L205.602 264M1 248.398H792.71M231.141 -127.967L231.141 264M1 224.311H792.71M256.68 -127.967L256.68 264M1 200.223H792.71M282.22 -127.967L282.219 264M1 176.136H792.71M307.759 -127.967L307.758 264M1 152.048H792.71M333.298 -127.967L333.298 264M1 127.961H792.71M358.837 -127.967L358.837 264M1 103.874H792.71M384.376 -127.967L384.376 264M1 79.7864H792.71M409.915 -127.967L409.915 264M1 55.699H792.71M435.454 -127.967L435.454 264M1 31.6116H792.71M460.993 -127.967L460.993 264M1 7.52424H792.71M486.532 -127.967L486.532 264M1 -16.5631H792.71M512.071 -127.967L512.071 264M1 -40.6505H792.71M537.61 -127.967L537.61 264M1 -64.7379H792.71M563.149 -127.967L563.149 264M1 -88.8253H792.71M588.688 -127.967L588.688 264M1 -112.913H792.71M614.227 -127.967V264M1 -137L792.71 -137M639.766 -127.967V264M665.305 -127.967V264M690.844 -127.967V264M716.383 -127.967V264M741.922 -127.967V264M767.461 -127.967V264M793 -127.967V264" stroke="url(#paint0_radial_6001_3915)"/>
<defs>
<radialGradient id="paint0_radial_6001_3915" cx="0" cy="0" r="1" gradientUnits="userSpaceOnUse" gradientTransform="translate(397 39.7026) rotate(90) scale(224.297 443.001)">
<stop stop-color="white" stop-opacity="0.12"/>
<stop offset="0.6" stop-color="white" stop-opacity="0"/>
</radialGradient>
</defs>
</svg>
