<svg width="24" height="25" viewBox="0 0 24 25" fill="none" xmlns="http://www.w3.org/2000/svg">
<path d="M14.9991 5.26562H16.9991C17.5295 5.26562 18.0382 5.47634 18.4133 5.85141C18.7883 6.22648 18.9991 6.73519 18.9991 7.26562V15.4356C19.6665 15.6715 20.2291 16.1358 20.5874 16.7464C20.9457 17.357 21.0765 18.0746 20.9569 18.7724C20.8372 19.4702 20.4747 20.1032 19.9334 20.5595C19.3922 21.0158 18.707 21.2661 17.9991 21.2661C17.2911 21.2661 16.6059 21.0158 16.0647 20.5595C15.5234 20.1032 15.1609 19.4702 15.0412 18.7724C14.9216 18.0746 15.0524 17.357 15.4107 16.7464C15.769 16.1358 16.3316 15.6715 16.9991 15.4356V7.26562H14.9991V10.2656L10.4991 6.26562L14.9991 2.26562V5.26562ZM4.99905 9.09562C4.33156 8.85972 3.76896 8.39543 3.41069 7.78482C3.05243 7.17421 2.92157 6.4566 3.04124 5.75884C3.16092 5.06107 3.52342 4.42808 4.06468 3.97175C4.60594 3.51542 5.2911 3.26514 5.99905 3.26514C6.70701 3.26514 7.39217 3.51542 7.93342 3.97175C8.47468 4.42808 8.83719 5.06107 8.95686 5.75884C9.07654 6.4566 8.94568 7.17421 8.58741 7.78482C8.22915 8.39543 7.66655 8.85972 6.99905 9.09562V15.4356C7.66655 15.6715 8.22915 16.1358 8.58741 16.7464C8.94568 17.357 9.07654 18.0746 8.95686 18.7724C8.83719 19.4702 8.47468 20.1032 7.93342 20.5595C7.39217 21.0158 6.70701 21.2661 5.99905 21.2661C5.2911 21.2661 4.60594 21.0158 4.06468 20.5595C3.52342 20.1032 3.16092 19.4702 3.04124 18.7724C2.92157 18.0746 3.05243 17.357 3.41069 16.7464C3.76896 16.1358 4.33156 15.6715 4.99905 15.4356V9.09562Z" fill="#A871FF"/>
</svg>
