<svg width="99.000000" height="34.000000" viewBox="0 0 99 34" fill="none" xmlns="http://www.w3.org/2000/svg" xmlns:xlink="http://www.w3.org/1999/xlink">
	<desc>
			Created with Pixso.
	</desc>
	<defs>
		<clipPath id="clip6001_3449">
			<rect id="Layer_2" rx="0.000000" width="19.000000" height="19.000000" transform="translate(0.500000 7.500000)" fill="white" fill-opacity="0"/>
		</clipPath>
		<linearGradient x1="10.000000" y1="7.000000" x2="10.000000" y2="27.000000" id="paint_linear_6001_3451_0" gradientUnits="userSpaceOnUse">
			<stop stop-color="#F3ECFE"/>
			<stop offset="1.000000" stop-color="#B039FF"/>
		</linearGradient>
		<linearGradient x1="24.000004" y1="18.000008" x2="115.000000" y2="18.000008" id="paint_linear_6001_3452_0" gradientUnits="userSpaceOnUse">
			<stop stop-color="#E8DAFF"/>
			<stop offset="1.000000" stop-color="#FFFFFF"/>
		</linearGradient>
	</defs>
	<rect id="Layer_2" rx="0.000000" width="19.000000" height="19.000000" transform="translate(0.500000 7.500000)" fill="#FFFFFF" fill-opacity="0"/>
	<g clip-path="url(#clip6001_3449)">
		<path id="Vector" d="M20 16.79L20 17.33L19.92 17.33C14.57 17.33 10.23 21.65 10.2 27L9.72 27C9.69 21.65 5.35 17.33 0 17.33L0 16.79C5.37 16.79 9.72 12.44 9.72 7.07L9.72 7L10.2 7L10.2 7.07C10.2 12.44 14.55 16.79 19.92 16.79L20 16.79Z" fill="url(#paint_linear_6001_3451_0)" fill-opacity="1.000000" fill-rule="nonzero"/>
	</g>
	<path id="ASTRA" d="M52.9 14.12L48.79 14.12C48.88 13.1 48.32 12.48 46.93 12.48C45.61 12.48 44.96 12.98 44.83 13.69C44.64 14.43 45.27 14.89 46.72 15.2L47.95 15.48C51.32 16.22 52.49 17.92 52.09 20.33C51.57 23.45 48.88 25.18 44.86 25.18C40.75 25.18 38.35 23.39 38.99 19.44L43.07 19.44C42.89 20.89 43.75 21.66 45.39 21.66C46.78 21.66 47.58 21.1 47.7 20.33C47.83 19.62 47.27 19.15 45.57 18.79L44.06 18.45C41.37 17.83 39.89 16.47 40.29 14C40.78 10.97 43.75 8.96 47.52 8.96C51.35 8.96 53.42 11 52.9 14.12ZM27.55 21.97L26.14 25L21.5 25L29.35 9.18L35.22 9.18L37.81 25L33.18 25L32.77 21.97L27.55 21.97ZM59.08 12.64L54.32 12.64L54.91 9.18L68.66 9.18L68.07 12.64L63.31 12.64L61.27 25L57.04 25L59.08 12.64ZM71.69 25L67.4 25L70.02 9.18L76.85 9.18C80.37 9.18 82.38 11.18 81.82 14.55C81.47 16.75 80.2 18.28 78.39 19.1L80.62 25L75.95 25L74.05 19.78L72.56 19.78L71.69 25ZM87.42 21.97L86 25L81.37 25L89.21 9.18L95.08 9.18L97.68 25L93.04 25L92.63 21.97L87.42 21.97ZM73.76 12.61L73.12 16.44L74.62 16.44C76.14 16.44 77.13 15.91 77.34 14.55C77.56 13.19 76.76 12.61 75.27 12.61L73.76 12.61ZM31.51 13.53L29.06 18.76L32.34 18.76L31.63 13.53L31.51 13.53ZM91.38 13.53L88.93 18.76L92.2 18.76L91.5 13.53L91.38 13.53Z" fill="url(#paint_linear_6001_3452_0)" fill-opacity="1.000000" fill-rule="evenodd"/>
</svg>
