<svg id="Layer_1" data-name="Layer 1" xmlns="http://www.w3.org/2000/svg" viewBox="0 0 342.93 103.98"><title>Upwork logo - Brandlogos.net</title><path id="_Compound_Path_" data-name="&lt;Compound Path&gt;" d="M376.32,345.06a27.75,27.75,0,1,0,27.55,27.63A27.57,27.57,0,0,0,376.32,345.06Zm.21,44.2a16.09,16.09,0,0,1-16.18-16v0a16.09,16.09,0,0,1,16-16.18h0a16.09,16.09,0,0,1,16.18,16v0A16.53,16.53,0,0,1,376.53,389.25Zm60.85-31.12a14.19,14.19,0,0,0-14,14.46l.12,26.38-12,.06-.24-52.43,12-.06,0,8.22a19.06,19.06,0,0,1,15.38-8.29l3.42,0,.06,11.65ZM317.74,347,326.82,383l9.43-36,12-.05L333.4,399.4l-11.65.05-9.42-36.62-9.08,36.7-11.65.05-15.66-52.35,11.65-.05L298,383.12l8.4-36Zm159.44,23.24a28,28,0,0,0,13.94-24.05l-12,.06a16,16,0,0,1-15.69,16.18h-1.71L461.53,321l-12,.06.37,77.78,12-.05-.11-24.67h1.37a3.21,3.21,0,0,1,3.09,1.7l16.89,22.87,14-.07Z" transform="translate(-154.26 -321.01)" style="fill:#4b4b4b"/><path id="_Compound_Path_2" data-name="&lt;Compound Path&gt;" d="M248.17,345.65c-13,.06-22.91,8.67-26.62,22.39a121,121,0,0,1-13.85-29.74l-13.7.07.17,36.32a13,13,0,0,1-26,.12L168,338.5l-13.71.07.17,36.32a26.73,26.73,0,1,0,53.46-.25l0-6.17a116.47,116.47,0,0,0,10,16.4L209.49,425l14-.07,6-29.15a34.72,34.72,0,0,0,18.86,5.39c15.08-.07,27.36-12.46,27.28-28.22A27.49,27.49,0,0,0,248.17,345.65Zm.2,41.46c-5.48,0-11-2.35-15.44-6.1l1.34-5.48v-.35c1-5.83,4-15.78,14.31-15.83A13.75,13.75,0,0,1,262.36,373C262,380.88,255.57,387.08,248.37,387.11Z" transform="translate(-154.26 -321.01)" style="fill:#6fda44"/></svg>